<svg width="30" height="30" viewBox="0 0 30 30" fill="none" xmlns="http://www.w3.org/2000/svg">
<rect x="0.5" y="0.5" width="29" height="29" rx="14.5" fill="white"/>
<rect x="0.5" y="0.5" width="29" height="29" rx="14.5" stroke="#C7D1D9"/>
<path d="M16.801 10.923C16.3647 11.4268 15.6668 11.8242 14.9688 11.7674C14.8815 11.0862 15.2233 10.3624 15.6231 9.91538C16.0594 9.39737 16.8228 9.02838 17.4408 9C17.5135 9.7096 17.2299 10.405 16.801 10.923ZM17.4335 11.9022C16.4229 11.8455 15.5577 12.4628 15.0778 12.4628C14.5907 12.4628 13.8564 11.9306 13.0566 11.9448C12.0169 11.959 11.05 12.5338 10.5192 13.4492C9.42863 15.2799 10.2357 17.9906 11.2899 19.4807C11.8061 20.2187 12.4241 21.0277 13.2384 20.9993C14.0091 20.9709 14.3144 20.5097 15.2451 20.5097C16.183 20.5097 16.452 20.9993 17.2663 20.9851C18.1097 20.9709 18.6404 20.2471 19.1566 19.5091C19.7455 18.6718 19.9855 17.8558 20 17.8132C19.9855 17.799 18.3714 17.1958 18.3569 15.3793C18.3423 13.8607 19.6292 13.1369 19.6874 13.0944C18.9603 12.0442 17.8261 11.9306 17.4335 11.9022Z" fill="black"/>
</svg>
