<svg width="23" height="23" viewBox="0 0 23 23" fill="none" xmlns="http://www.w3.org/2000/svg">
<rect width="23" height="23" rx="11.5" fill="white" fill-opacity="0.89"/>
<path fill-rule="evenodd" clip-rule="evenodd" d="M17.1492 8.26504C16.6791 8.26504 16.2984 8.70147 16.2984 9.24067C16.2984 9.38439 16.3269 9.5208 16.3757 9.64347C15.0592 10.434 13.8358 11.6547 13.8358 11.6547C12.7233 12.9965 11.8223 10.8093 11.331 9.13265C11.9294 8.9562 12.373 8.33438 12.373 7.59241C12.373 6.7129 11.7518 6 10.9847 6C10.2178 6 9.59632 6.7129 9.59632 7.59241C9.59632 8.34605 10.053 8.97473 10.6666 9.14134C10.1742 10.8182 9.27475 12.996 8.16504 11.6558C8.16504 11.6558 6.94164 10.4351 5.62383 9.64461C5.67503 9.51705 5.70146 9.38014 5.70159 9.24181C5.70159 8.70262 5.32044 8.26618 4.85079 8.26618C4.38093 8.26618 4 8.70262 4 9.24181C4 9.78101 4.38115 10.2179 4.85079 10.2179C5.00851 10.2179 5.15374 10.1655 5.28079 10.0797C5.77234 11.1505 6.4663 13.0755 6.10399 14.8409C6.10399 14.8409 6.63738 17.0734 11 16.9981C15.3624 17.0734 15.8951 14.8409 15.8951 14.8409C15.5333 13.0761 16.227 11.1517 16.719 10.0797C16.846 10.1655 16.9913 10.2179 17.149 10.2179C17.6189 10.2179 18 9.78101 18 9.24181C18 8.70262 17.6191 8.26595 17.1492 8.26595" fill="#F79420"/>
<path fill-rule="evenodd" clip-rule="evenodd" d="M10.4686 16.9993C11.0638 13.6959 11.3037 10.3235 10.4121 7.04196C10.3105 6.6685 10.2838 6.32034 10.3132 6C9.74254 6.17684 9.3208 6.80165 9.3208 7.54856C9.3208 8.30583 9.75504 8.93983 10.3384 9.10449C9.87021 10.7899 9.01507 12.9787 7.95999 11.6315C7.95999 11.6315 6.79682 10.4049 5.54388 9.6104C5.5926 9.48216 5.61774 9.3445 5.61782 9.20544C5.61782 8.66457 5.25543 8.22557 4.80891 8.22557C4.36218 8.22557 4 8.66457 4 9.20544C4 9.74769 4.36238 10.1867 4.80891 10.1867C4.95886 10.1867 5.09694 10.1336 5.21774 10.0478C5.68509 11.1231 6.34488 13.058 6.0004 14.8312C6.0004 14.8312 6.49504 17.0037 10.4686 17" fill="#F19D43"/>
</svg>
