<svg width="31" height="31" viewBox="0 0 31 31" fill="none" xmlns="http://www.w3.org/2000/svg">
<rect width="31" height="31" rx="15.5" fill="white" fill-opacity="0.89"/>
<path fill-rule="evenodd" clip-rule="evenodd" d="M23.9061 10.9007C23.3017 10.9007 22.8122 11.4596 22.8122 12.1501C22.8122 12.3342 22.8489 12.5088 22.9117 12.6659C21.219 13.6783 19.6461 15.2416 19.6461 15.2416C18.2156 16.96 17.0573 14.1589 16.4256 12.0118C17.195 11.7858 17.7653 10.9895 17.7653 10.0393C17.7653 8.91296 16.9666 8 15.9803 8C14.9943 8 14.1953 8.91296 14.1953 10.0393C14.1953 11.0044 14.7825 11.8095 15.5713 12.0229C14.9382 14.1704 13.7818 16.9594 12.3551 15.2431C12.3551 15.2431 10.7821 13.6797 9.08778 12.6674C9.15361 12.5041 9.1876 12.3287 9.18776 12.1516C9.18776 11.4611 8.69771 10.9021 8.09388 10.9021C7.48977 10.9021 7 11.4611 7 12.1516C7 12.8421 7.49005 13.4016 8.09388 13.4016C8.29666 13.4016 8.48338 13.3345 8.64673 13.2246C9.27873 14.5959 10.171 17.0611 9.70513 19.3219C9.70513 19.3219 10.3909 22.181 16 22.0846C21.6088 22.181 22.2937 19.3219 22.2937 19.3219C21.8285 17.0619 22.7204 14.5974 23.353 13.2246C23.5163 13.3345 23.7031 13.4016 23.9058 13.4016C24.51 13.4016 25 12.8421 25 12.1516C25 11.4611 24.5102 10.9019 23.9061 10.9019" fill="#F79420"/>
</svg>
