<svg width="85" height="85" viewBox="0 0 85 85" fill="none" xmlns="http://www.w3.org/2000/svg">
<circle cx="42.9314" cy="42.0642" r="32.0251" stroke="#8E8E8E"/>
<circle cx="42.4995" cy="42.4995" r="41.4995" stroke="white" stroke-width="2"/>
<rect x="29" y="28.5117" width="26" height="25" rx="7" fill="white"/>
<path d="M35.5013 42.0534C33.118 42.0534 31.168 43.9284 31.168 46.2201C31.168 48.5117 33.118 50.3867 35.5013 50.3867C37.8846 50.3867 39.8346 48.5117 39.8346 46.2201C39.8346 43.9284 37.8846 42.0534 35.5013 42.0534ZM42.0013 31.6367C39.618 31.6367 37.668 33.5117 37.668 35.8034C37.668 38.0951 39.618 39.9701 42.0013 39.9701C44.3846 39.9701 46.3346 38.0951 46.3346 35.8034C46.3346 33.5117 44.3846 31.6367 42.0013 31.6367ZM48.5013 42.0534C46.118 42.0534 44.168 43.9284 44.168 46.2201C44.168 48.5117 46.118 50.3867 48.5013 50.3867C50.8846 50.3867 52.8346 48.5117 52.8346 46.2201C52.8346 43.9284 50.8846 42.0534 48.5013 42.0534Z" fill="#64748B"/>
</svg>
