<svg width="9" height="8" viewBox="0 0 9 8" fill="none" xmlns="http://www.w3.org/2000/svg">
<path d="M1.34162 0.65577L7.65662 0.65577C7.90593 0.655409 8.15025 0.725659 8.36129 0.858389C8.57233 0.991119 8.74147 1.1809 8.84912 1.40577C8.97515 1.67258 9.02369 1.96942 8.98921 2.26247C8.95473 2.55552 8.83863 2.833 8.65412 3.06327L5.49662 6.88827C5.37271 7.03124 5.21951 7.14591 5.04741 7.22449C4.87531 7.30308 4.68832 7.34375 4.49912 7.34375C4.30993 7.34375 4.12294 7.30308 3.95084 7.22449C3.77873 7.14591 3.62554 7.03124 3.50162 6.88827L0.344123 3.06327C0.159618 2.833 0.0435114 2.55552 0.00903511 2.26247C-0.0254412 1.96942 0.0230989 1.67258 0.149124 1.40577C0.25678 1.1809 0.425918 0.991119 0.636958 0.858389C0.847999 0.725659 1.09231 0.655409 1.34162 0.65577Z" fill="white"/>
</svg>
