<svg width="30" height="30" viewBox="0 0 30 30" fill="none" xmlns="http://www.w3.org/2000/svg">
<rect x="0.5" y="0.5" width="29" height="29" rx="14.5" fill="white"/>
<rect x="0.5" y="0.5" width="29" height="29" rx="14.5" stroke="#C7D1D9"/>
<path d="M20.9957 15.1426C20.9957 14.7233 20.9494 14.304 20.9031 13.8848H15.1172V16.2606H18.4036C18.2647 17.006 17.8482 17.7048 17.2001 18.1241V19.6614H19.1905C20.3477 18.5899 20.9957 17.006 20.9957 15.1426Z" fill="#4285F4"/>
<path d="M15.126 21.1526C16.7924 21.1526 18.181 20.5936 19.1993 19.6619L17.209 18.1246C16.6535 18.4972 15.9592 18.7302 15.126 18.7302C13.5522 18.7302 12.1636 17.6587 11.7007 16.168H9.66406V17.7519C10.7287 19.8482 12.8116 21.1526 15.126 21.1526Z" fill="#34A853"/>
<path d="M11.6963 16.1668C11.4185 15.4214 11.4185 14.5829 11.6963 13.7909V12.207H9.6596C8.78013 13.9307 8.78013 15.9805 9.6596 17.7507L11.6963 16.1668Z" fill="#FBBC04"/>
<path d="M15.1266 11.2746C16.0061 11.2746 16.8392 11.6007 17.4873 12.2063L19.2462 10.436C18.1353 9.41114 16.6541 8.80553 15.1729 8.85212C12.8585 8.85212 10.7293 10.1565 9.71094 12.2529L11.7476 13.8368C12.1642 12.346 13.5528 11.2746 15.1266 11.2746Z" fill="#EA4335"/>
</svg>
