<svg width="10" height="7" viewBox="0 0 10 7" fill="none" xmlns="http://www.w3.org/2000/svg">
<path d="M7.68658 6.6946L1.37164 6.7213C1.12233 6.72272 0.877724 6.6535 0.666124 6.52167C0.454524 6.38983 0.284585 6.20076 0.175979 5.97635C0.0488278 5.71008 -0.000966105 5.41345 0.0322713 5.12025C0.0655087 4.82706 0.180441 4.54909 0.36397 4.31804L3.50527 0.479727C3.62858 0.336232 3.78129 0.220921 3.95306 0.141608C4.12483 0.062295 4.31164 0.0208335 4.50084 0.0200336C4.69003 0.0192338 4.87719 0.0591141 5.04962 0.136972C5.22206 0.21483 5.37574 0.328846 5.50025 0.471293L8.6739 4.28291C8.85937 4.5124 8.97665 4.78938 9.01237 5.08228C9.04808 5.37519 9.0008 5.67223 8.8759 5.93957C8.7692 6.16489 8.60086 6.35539 8.39039 6.48901C8.17991 6.62263 7.93589 6.69391 7.68658 6.6946Z" fill="#0E9B4F"/>
<path d="M7.68658 6.6946L1.37164 6.7213C1.12233 6.72272 0.877724 6.6535 0.666124 6.52167C0.454524 6.38983 0.284585 6.20076 0.175979 5.97635C0.0488278 5.71008 -0.000966105 5.41345 0.0322713 5.12025C0.0655087 4.82706 0.180441 4.54909 0.36397 4.31804L3.50527 0.479727C3.62858 0.336232 3.78129 0.220921 3.95306 0.141608C4.12483 0.062295 4.31164 0.0208335 4.50084 0.0200336C4.69003 0.0192338 4.87719 0.0591141 5.04962 0.136972C5.22206 0.21483 5.37574 0.328846 5.50025 0.471293L8.6739 4.28291C8.85937 4.5124 8.97665 4.78938 9.01237 5.08228C9.04808 5.37519 9.0008 5.67223 8.8759 5.93957C8.7692 6.16489 8.60086 6.35539 8.39039 6.48901C8.17991 6.62263 7.93589 6.69391 7.68658 6.6946Z" fill="#0E9B4F"/>
<path d="M7.68658 6.6946L1.37164 6.7213C1.12233 6.72272 0.877724 6.6535 0.666124 6.52167C0.454524 6.38983 0.284585 6.20076 0.175979 5.97635C0.0488278 5.71008 -0.000966105 5.41345 0.0322713 5.12025C0.0655087 4.82706 0.180441 4.54909 0.36397 4.31804L3.50527 0.479727C3.62858 0.336232 3.78129 0.220921 3.95306 0.141608C4.12483 0.062295 4.31164 0.0208335 4.50084 0.0200336C4.69003 0.0192338 4.87719 0.0591141 5.04962 0.136972C5.22206 0.21483 5.37574 0.328846 5.50025 0.471293L8.6739 4.28291C8.85937 4.5124 8.97665 4.78938 9.01237 5.08228C9.04808 5.37519 9.0008 5.67223 8.8759 5.93957C8.7692 6.16489 8.60086 6.35539 8.39039 6.48901C8.17991 6.62263 7.93589 6.69391 7.68658 6.6946Z" fill="#0E9B4F"/>
</svg>
