<svg width="16" height="16" viewBox="0 0 16 16" fill="none" xmlns="http://www.w3.org/2000/svg">
<path d="M8 0.6875C6.55373 0.6875 5.13993 1.11637 3.9374 1.91988C2.73486 2.72339 1.7976 3.86544 1.24413 5.20163C0.690668 6.53781 0.545857 8.00811 0.828011 9.4266C1.11017 10.8451 1.80661 12.148 2.82928 13.1707C3.85196 14.1934 5.15492 14.8898 6.57341 15.172C7.99189 15.4541 9.46219 15.3093 10.7984 14.7559C12.1346 14.2024 13.2766 13.2651 14.0801 12.0626C14.8836 10.8601 15.3125 9.44628 15.3125 8C15.3105 6.06123 14.5394 4.20246 13.1685 2.83154C11.7975 1.46063 9.93877 0.689547 8 0.6875ZM8 11.375C7.33249 11.375 6.67997 11.1771 6.12495 10.8062C5.56994 10.4354 5.13736 9.90826 4.88191 9.29156C4.62646 8.67486 4.55963 7.99626 4.68985 7.34157C4.82008 6.68688 5.14152 6.08552 5.61352 5.61351C6.08552 5.14151 6.68689 4.82008 7.34157 4.68985C7.99626 4.55962 8.67486 4.62646 9.29156 4.88191C9.90826 5.13735 10.4354 5.56993 10.8062 6.12495C11.1771 6.67997 11.375 7.33249 11.375 8C11.3741 8.89482 11.0182 9.75272 10.3855 10.3855C9.75273 11.0182 8.89482 11.3741 8 11.375ZM10.757 4.44711C10.1212 3.9502 9.363 3.63437 8.5625 3.53305V1.83852C9.81079 1.95096 10.9951 2.44155 11.9572 3.24477L10.757 4.44711ZM7.4375 3.53656C6.637 3.63789 5.87878 3.95371 5.24305 4.45062L4.04282 3.24688C5.00495 2.44366 6.18922 1.95307 7.4375 1.84063V3.53656ZM4.44711 5.24305C3.9502 5.87877 3.63438 6.637 3.53305 7.4375H1.83852C1.95097 6.18922 2.44155 5.00494 3.24477 4.04281L4.44711 5.24305ZM3.53657 8.5625C3.63789 9.363 3.95372 10.1212 4.45063 10.757L3.24688 11.9572C2.44366 10.9951 1.95308 9.81078 1.84063 8.5625H3.53657ZM5.24305 11.5529C5.87916 12.0485 6.63735 12.3631 7.4375 12.4634V14.1615C6.18922 14.049 5.00495 13.5585 4.04282 12.7552L5.24305 11.5529ZM8.5625 12.4634C9.36265 12.3631 10.1208 12.0485 10.757 11.5529L11.9572 12.7531C10.9951 13.5563 9.81079 14.0469 8.5625 14.1594V12.4634ZM11.5529 10.757C12.0485 10.1208 12.3631 9.36265 12.4634 8.5625H14.1615C14.049 9.81078 13.5585 10.9951 12.7552 11.9572L11.5529 10.757ZM12.4634 7.4375C12.3631 6.63735 12.0485 5.87915 11.5529 5.24305L12.7531 4.04281C13.5563 5.00494 14.0469 6.18922 14.1594 7.4375H12.4634Z" fill="#F79420"/>
</svg>
