<svg width="30" height="30" viewBox="0 0 30 30" fill="none" xmlns="http://www.w3.org/2000/svg">
<rect x="0.5" y="0.5" width="29" height="29" rx="14.5" fill="white"/>
<rect x="0.5" y="0.5" width="29" height="29" rx="14.5" stroke="#C7D1D9"/>
<g clip-path="url(#clip0_2360_30714)">
<path d="M23.0009 15.0614C23.0009 17.7944 20.7898 20.0056 18.0567 20.0056C16.9031 20.0056 15.8456 19.6073 15.0078 18.9481C16.1615 18.0417 16.8894 16.6408 16.8894 15.0614C16.8894 13.482 16.1477 12.0811 15.0078 11.1747C15.8456 10.5155 16.9031 10.1172 18.0567 10.1172C20.7898 10.1172 23.0009 12.3421 23.0009 15.0614Z" fill="#F79E1B"/>
<path d="M15.0047 11.1738C15.0047 11.1738 15.0047 11.1738 15.0047 11.1738C16.1446 12.0803 16.8862 13.4811 16.8862 15.0605C16.8862 16.6399 16.1583 18.0408 15.0047 18.9472L14.9909 18.9472C13.851 18.0545 13.1094 16.6399 13.1094 15.0606C13.1094 13.4812 13.851 12.0803 14.9909 11.1739C14.9909 11.1738 14.9909 11.1739 14.9909 11.1739L15.0047 11.1738Z" fill="#FF5F00"/>
<path d="M13.1116 15.0614C13.1116 13.482 13.8532 12.0811 14.9931 11.1747C14.1554 10.5155 13.0979 10.1172 11.9442 10.1172C9.21116 10.1172 7 12.3283 7 15.0614C7 17.7944 9.21116 20.0056 11.9442 20.0056C13.0979 20.0056 14.1554 19.6073 14.9931 18.9481C13.8532 18.0554 13.1116 16.6408 13.1116 15.0614Z" fill="#EB001B"/>
</g>
<defs>
<clipPath id="clip0_2360_30714">
<rect width="16" height="9.88842" fill="white" transform="translate(7 10.1172)"/>
</clipPath>
</defs>
</svg>
