<svg width="30" height="30" viewBox="0 0 30 30" fill="none" xmlns="http://www.w3.org/2000/svg">
<rect x="0.5" y="0.5" width="29" height="29" rx="14.5" fill="white"/>
<rect x="0.5" y="0.5" width="29" height="29" rx="14.5" stroke="#C7D1D9"/>
<path d="M16.3125 15C16.3125 15.2596 16.2355 15.5133 16.0913 15.7292C15.9471 15.945 15.7421 16.1133 15.5023 16.2126C15.2624 16.3119 14.9985 16.3379 14.7439 16.2873C14.4893 16.2366 14.2555 16.1116 14.0719 15.9281C13.8884 15.7445 13.7634 15.5107 13.7127 15.2561C13.6621 15.0015 13.6881 14.7376 13.7874 14.4977C13.8867 14.2579 14.055 14.0529 14.2708 13.9087C14.4867 13.7645 14.7404 13.6875 15 13.6875C15.3481 13.6875 15.6819 13.8258 15.9281 14.0719C16.1742 14.3181 16.3125 14.6519 16.3125 15ZM11.25 13.6875C10.9904 13.6875 10.7367 13.7645 10.5208 13.9087C10.305 14.0529 10.1367 14.2579 10.0374 14.4977C9.93807 14.7376 9.91208 15.0015 9.96272 15.2561C10.0134 15.5107 10.1384 15.7445 10.3219 15.9281C10.5055 16.1116 10.7393 16.2366 10.9939 16.2873C11.2485 16.3379 11.5124 16.3119 11.7523 16.2126C11.9921 16.1133 12.1971 15.945 12.3413 15.7292C12.4855 15.5133 12.5625 15.2596 12.5625 15C12.5625 14.6519 12.4242 14.3181 12.1781 14.0719C11.9319 13.8258 11.5981 13.6875 11.25 13.6875ZM18.75 13.6875C18.4904 13.6875 18.2367 13.7645 18.0208 13.9087C17.805 14.0529 17.6367 14.2579 17.5374 14.4977C17.4381 14.7376 17.4121 15.0015 17.4627 15.2561C17.5134 15.5107 17.6384 15.7445 17.8219 15.9281C18.0055 16.1116 18.2393 16.2366 18.4939 16.2873C18.7485 16.3379 19.0124 16.3119 19.2523 16.2126C19.4921 16.1133 19.6971 15.945 19.8413 15.7292C19.9855 15.5133 20.0625 15.2596 20.0625 15C20.0625 14.8276 20.0286 14.657 19.9626 14.4977C19.8966 14.3385 19.8 14.1938 19.6781 14.0719C19.5562 13.95 19.4115 13.8534 19.2523 13.7874C19.093 13.7214 18.9224 13.6875 18.75 13.6875Z" fill="#343330"/>
</svg>
