<svg width="33" height="24" viewBox="0 0 33 24" fill="none" xmlns="http://www.w3.org/2000/svg">
<path d="M14.5897 0.151858C14.9209 -0.0506197 15.3376 -0.050619 15.6689 0.151858L29.7619 8.76707C30.6532 9.31197 30.267 10.6842 29.2223 10.6842H1.03631C-0.00840273 10.6842 -0.394612 9.31197 0.49674 8.76707L14.5897 0.151858Z" fill="#DC8513"/>
<path d="M4.61194 13.098C4.61194 12.4315 5.15229 11.8911 5.81885 11.8911C6.48541 11.8911 7.02576 12.4315 7.02576 13.098V18.661C7.02576 19.3276 6.48541 19.8679 5.81885 19.8679C5.15229 19.8679 4.61194 19.3276 4.61194 18.661V13.098Z" fill="#1E293B"/>
<path d="M13.9224 13.098C13.9224 12.4315 14.4627 11.8911 15.1293 11.8911C15.7959 11.8911 16.3362 12.4315 16.3362 13.098V18.661C16.3362 19.3276 15.7959 19.8679 15.1293 19.8679C14.4627 19.8679 13.9224 19.3276 13.9224 18.661V13.098Z" fill="#1E293B"/>
<path d="M23.2328 13.098C23.2328 12.4315 23.7732 11.8911 24.4397 11.8911C25.1063 11.8911 25.6466 12.4315 25.6466 13.098V18.661C25.6466 19.3276 25.1063 19.8679 24.4397 19.8679C23.7732 19.8679 23.2328 19.3276 23.2328 18.661V13.098Z" fill="#1E293B"/>
<path d="M0.818795 22.7732C0.818795 22.0957 1.36805 21.5464 2.0456 21.5464H27.8682C28.5457 21.5464 29.095 22.0957 29.095 22.7732C29.095 23.4507 28.5457 24 27.8682 24H2.0456C1.36805 24 0.818795 23.4507 0.818795 22.7732Z" fill="#1E293B"/>
<path d="M14.8505 0.57846C15.0216 0.473846 15.2369 0.473846 15.4081 0.578461L29.5011 9.19368C29.9616 9.4752 29.7621 10.1842 29.2223 10.1842H1.03631C0.496534 10.1842 0.296992 9.47521 0.757527 9.19367L14.8505 0.57846ZM5.11194 13.098C5.11194 12.7076 5.42843 12.3911 5.81885 12.3911C6.20926 12.3911 6.52576 12.7076 6.52576 13.098V18.661C6.52576 19.0514 6.20926 19.3679 5.81885 19.3679C5.42843 19.3679 5.11194 19.0514 5.11194 18.661V13.098ZM14.4224 13.098C14.4224 12.7076 14.7389 12.3911 15.1293 12.3911C15.5197 12.3911 15.8362 12.7076 15.8362 13.098V18.661C15.8362 19.0514 15.5197 19.3679 15.1293 19.3679C14.7389 19.3679 14.4224 19.0514 14.4224 18.661V13.098ZM23.7328 13.098C23.7328 12.7076 24.0493 12.3911 24.4397 12.3911C24.8302 12.3911 25.1466 12.7076 25.1466 13.098V18.661C25.1466 19.0514 24.8302 19.3679 24.4397 19.3679C24.0493 19.3679 23.7328 19.0514 23.7328 18.661V13.098ZM1.31879 22.7732C1.31879 22.3718 1.6442 22.0464 2.0456 22.0464H27.8682C28.2696 22.0464 28.595 22.3718 28.595 22.7732C28.595 23.1746 28.2696 23.5 27.8682 23.5H2.0456C1.6442 23.5 1.31879 23.1746 1.31879 22.7732Z" stroke="#1E293B"/>
<g clip-path="url(#clip0_2360_30666)">
<path d="M27.3307 11.7194C29.6319 11.7194 31.4974 9.66737 31.4974 7.13607C31.4974 4.60476 29.6319 2.55273 27.3307 2.55273C25.0295 2.55273 23.1641 4.60476 23.1641 7.13607C23.1641 9.66737 25.0295 11.7194 27.3307 11.7194Z" fill="white" stroke="#1E293B" stroke-linecap="round" stroke-linejoin="round"/>
<path d="M27.3307 2.55273C28.3729 3.80781 28.9652 5.43658 28.9974 7.13607C28.9652 8.83555 28.3729 10.4643 27.3307 11.7194C26.2885 10.4643 25.6962 8.83555 25.6641 7.13607C25.6962 5.43658 26.2885 3.80781 27.3307 2.55273Z" fill="#DC8513" stroke="#1E293B" stroke-linecap="round" stroke-linejoin="round"/>
<path d="M23.1641 7.13672H31.4974" stroke="#1E293B" stroke-linecap="round" stroke-linejoin="round"/>
</g>
<defs>
<clipPath id="clip0_2360_30666">
<rect width="10" height="11" fill="white" transform="translate(22.3281 1.63672)"/>
</clipPath>
</defs>
</svg>
