<svg width="85" height="85" viewBox="0 0 85 85" fill="none" xmlns="http://www.w3.org/2000/svg">
<circle cx="42.783" cy="41.9197" r="31.9119" stroke="#8E8E8E"/>
<circle cx="42.3516" cy="42.3516" r="41.3516" stroke="white" stroke-width="2"/>
<path d="M41.9185 31.4414C41.4224 31.4414 40.9311 31.5391 40.4728 31.729C40.0145 31.9188 39.5981 32.1971 39.2473 32.5478C38.8965 32.8986 38.6182 33.3151 38.4284 33.7734C38.2386 34.2317 38.1408 34.7229 38.1408 35.219C38.1408 35.7151 38.2386 36.2063 38.4284 36.6646C38.6182 37.123 38.8965 37.5394 39.2473 37.8902C39.5981 38.241 40.0145 38.5192 40.4728 38.7091C40.9311 38.8989 41.4224 38.9966 41.9185 38.9966C42.9203 38.9966 43.8812 38.5986 44.5896 37.8902C45.2981 37.1817 45.6961 36.2209 45.6961 35.219C45.6961 34.2171 45.2981 33.2563 44.5896 32.5478C43.8812 31.8394 42.9203 31.4414 41.9185 31.4414ZM50.4266 33.3283C49.6744 33.3283 48.9531 33.6271 48.4212 34.159C47.8893 34.6908 47.5905 35.4122 47.5905 36.1644C47.5905 36.9165 47.8893 37.6379 48.4212 38.1697C48.9531 38.7016 49.6744 39.0004 50.4266 39.0004C51.1787 39.0004 51.9001 38.7016 52.432 38.1697C52.9638 37.6379 53.2626 36.9165 53.2626 36.1644C53.2626 35.4122 52.9638 34.6908 52.432 34.159C51.9001 33.6271 51.1787 33.3283 50.4266 33.3283ZM33.4103 33.3283C32.6582 33.3283 31.9368 33.6271 31.4049 34.159C30.8731 34.6908 30.5743 35.4122 30.5743 36.1644C30.5743 36.9165 30.8731 37.6379 31.4049 38.1697C31.9368 38.7016 32.6582 39.0004 33.4103 39.0004C34.1625 39.0004 34.8839 38.7016 35.4157 38.1697C35.9476 37.6379 36.2464 36.9165 36.2464 36.1644C36.2464 35.4122 35.9476 34.6908 35.4157 34.159C34.8839 33.6271 34.1625 33.3283 33.4103 33.3283ZM36.2464 42.7686C36.2499 42.2694 36.4506 41.7919 36.8048 41.4402C37.159 41.0885 37.6379 40.8911 38.1371 40.8911H45.6998C46.2013 40.8911 46.6822 41.0903 47.0368 41.4449C47.3913 41.7994 47.5905 42.2803 47.5905 42.7818V48.4539C47.591 49.049 47.4979 49.6404 47.3145 50.2066C46.8958 51.4898 46.0334 52.5817 44.8821 53.2863C43.7309 53.9909 42.3661 54.262 41.0329 54.0508C39.6997 53.8397 38.4855 53.1603 37.6082 52.1344C36.7309 51.1086 36.2481 49.8037 36.2464 48.4539V42.7686ZM34.3557 42.7818C34.3557 42.0917 34.5391 41.447 34.8624 40.8911H30.5743C30.0728 40.8911 29.5919 41.0903 29.2374 41.4449C28.8828 41.7994 28.6836 42.2803 28.6836 42.7818V47.5085C28.6833 48.2824 28.8731 49.0445 29.2362 49.7279C29.5993 50.4113 30.1246 50.9951 30.7661 51.428C31.4075 51.8609 32.1455 52.1297 32.9151 52.2108C33.6847 52.2919 34.4624 52.1828 35.18 51.8931C34.637 50.8274 34.3545 49.6481 34.3557 48.452V42.7818ZM49.4812 42.7818V48.4539C49.4812 49.6923 49.1844 50.8607 48.6569 51.8931C49.3745 52.1828 50.1522 52.2919 50.9218 52.2108C51.6915 52.1297 52.4294 51.8609 53.0708 51.428C53.7123 50.9951 54.2376 50.4113 54.6007 49.7279C54.9638 49.0445 55.1536 48.2824 55.1533 47.5085V42.7818C55.1533 42.2803 54.9541 41.7994 54.5995 41.4449C54.245 41.0903 53.7641 40.8911 53.2626 40.8911H48.9745C49.2959 41.447 49.4812 42.0917 49.4812 42.7818Z" fill="white"/>
</svg>
