<svg width="30" height="30" viewBox="0 0 30 30" fill="none" xmlns="http://www.w3.org/2000/svg">
<rect x="0.5" y="0.5" width="29" height="29" rx="14.5" fill="white"/>
<rect x="0.5" y="0.5" width="29" height="29" rx="14.5" stroke="#C7D1D9"/>
<g clip-path="url(#clip0_2360_30697)">
<path d="M18.9493 12.2389C18.6537 12.1217 18.1849 11.9922 17.6052 11.9922C16.1252 11.9922 15.0831 12.7814 15.0767 13.9097C15.0644 14.7421 15.8228 15.2045 16.3901 15.4821C16.9699 15.7657 17.167 15.9508 17.167 16.2036C17.1611 16.5919 16.6985 16.7709 16.267 16.7709C15.6687 16.7709 15.3481 16.6786 14.8609 16.4626L14.6635 16.37L14.4538 17.671C14.8053 17.8312 15.4529 17.9733 16.1252 17.9795C17.6977 17.9795 18.7214 17.2025 18.7335 16.0001C18.7395 15.3404 18.339 14.8348 17.4756 14.4217C16.9514 14.1565 16.6304 13.9777 16.6304 13.7063C16.6366 13.4597 16.9019 13.207 17.4936 13.207C17.9808 13.1946 18.3388 13.3118 18.61 13.4289L18.7455 13.4905L18.9493 12.2389Z" fill="url(#paint0_linear_2360_30697)"/>
<path d="M13.5167 17.8931H12.018L12.9554 12.0972H14.4539L13.5167 17.8931Z" fill="url(#paint1_linear_2360_30697)"/>
<path fill-rule="evenodd" clip-rule="evenodd" d="M22.791 12.0972H21.6318C21.2743 12.0972 21.0027 12.202 20.8485 12.5781L18.6225 17.893H20.195C20.195 17.893 20.4538 17.1777 20.5095 17.0236H22.4336C22.4766 17.2271 22.6124 17.893 22.6124 17.893H24L22.791 12.0972ZM20.9411 15.8398C21.0645 15.5069 21.5394 14.2182 21.5394 14.2182C21.5369 14.2232 21.5562 14.1696 21.585 14.0898L21.5854 14.0888L21.5856 14.0882C21.6287 13.9689 21.6925 13.7919 21.7366 13.6633L21.8413 14.1627C21.8413 14.1627 22.1251 15.5501 22.1868 15.8398H20.9411Z" fill="url(#paint2_linear_2360_30697)"/>
<path d="M10.7663 12.0972L9.29865 16.0495L9.13828 15.2479L9.13813 15.2474L8.61412 12.5844C8.52783 12.2143 8.26263 12.1095 7.93582 12.0972H5.52467L5.5 12.2144C6.08807 12.3647 6.61404 12.5814 7.07491 12.8509L8.41064 17.887H9.9954L12.351 12.0972H10.7663Z" fill="url(#paint3_linear_2360_30697)"/>
</g>
<defs>
<linearGradient id="paint0_linear_2360_30697" x1="5.5" y1="14.9984" x2="24" y2="14.9984" gradientUnits="userSpaceOnUse">
<stop stop-color="#222357"/>
<stop offset="1" stop-color="#254AA5"/>
</linearGradient>
<linearGradient id="paint1_linear_2360_30697" x1="5.5" y1="14.9984" x2="24" y2="14.9984" gradientUnits="userSpaceOnUse">
<stop stop-color="#222357"/>
<stop offset="1" stop-color="#254AA5"/>
</linearGradient>
<linearGradient id="paint2_linear_2360_30697" x1="5.5" y1="14.9984" x2="24" y2="14.9984" gradientUnits="userSpaceOnUse">
<stop stop-color="#222357"/>
<stop offset="1" stop-color="#254AA5"/>
</linearGradient>
<linearGradient id="paint3_linear_2360_30697" x1="5.5" y1="14.9984" x2="24" y2="14.9984" gradientUnits="userSpaceOnUse">
<stop stop-color="#222357"/>
<stop offset="1" stop-color="#254AA5"/>
</linearGradient>
<clipPath id="clip0_2360_30697">
<rect width="18.5" height="5.98731" fill="white" transform="translate(5.5 11.9922)"/>
</clipPath>
</defs>
</svg>
