<svg width="85" height="85" viewBox="0 0 85 85" fill="none" xmlns="http://www.w3.org/2000/svg">
<circle cx="42.9318" cy="42.0646" r="32.0255" stroke="#8E8E8E"/>
<circle cx="42.5" cy="42.5" r="41.5" stroke="white" stroke-width="2"/>
<path fill-rule="evenodd" clip-rule="evenodd" d="M31.33 31.4769C29.5 33.3705 29.5 36.4137 29.5 42.5026C29.5 48.5915 29.5 51.636 31.33 53.527C33.1625 55.4193 36.1075 55.4193 42 55.4193C47.8925 55.4193 50.8387 55.4193 52.6688 53.527C54.5 51.6373 54.5 48.5915 54.5 42.5026C54.5 36.4137 54.5 33.3692 52.6688 31.4769C50.84 29.5859 47.8925 29.5859 42 29.5859C36.1075 29.5859 33.1613 29.5859 31.33 31.4769ZM44.1875 39.9193C44.1875 40.454 44.6075 40.888 45.125 40.888H45.9875L43.4713 43.4881C43.4422 43.5182 43.4077 43.5421 43.3698 43.5584C43.3318 43.5746 43.2911 43.583 43.25 43.583C43.2089 43.583 43.1682 43.5746 43.1302 43.5584C43.0923 43.5421 43.0578 43.5182 43.0287 43.4881L41.0463 41.4396C40.6361 41.016 40.0799 40.7781 39.5 40.7781C38.9201 40.7781 38.3639 41.016 37.9537 41.4396L35.0875 44.4014C34.9954 44.49 34.9215 44.597 34.8703 44.7158C34.819 44.8347 34.7915 44.9629 34.7893 45.093C34.787 45.2231 34.8102 45.3523 34.8573 45.4729C34.9045 45.5935 34.9747 45.7031 35.0637 45.7951C35.1527 45.8871 35.2588 45.9596 35.3755 46.0083C35.4922 46.0571 35.6173 46.081 35.7432 46.0787C35.869 46.0764 35.9932 46.0479 36.1082 45.995C36.2232 45.942 36.3267 45.8657 36.4125 45.7705L39.2787 42.8087C39.3078 42.7787 39.3423 42.7548 39.3802 42.7385C39.4182 42.7222 39.4589 42.7139 39.5 42.7139C39.5411 42.7139 39.5818 42.7222 39.6198 42.7385C39.6577 42.7548 39.6922 42.7787 39.7213 42.8087L41.7037 44.8573C42.1139 45.2809 42.6701 45.5188 43.25 45.5188C43.8299 45.5188 44.3861 45.2809 44.7963 44.8573L47.3125 42.2585V43.1484C47.3125 43.4054 47.4113 43.6518 47.5871 43.8334C47.7629 44.0151 48.0014 44.1172 48.25 44.1172C48.4986 44.1172 48.7371 44.0151 48.9129 43.8334C49.0887 43.6518 49.1875 43.4054 49.1875 43.1484V39.9193C49.1875 39.6623 49.0887 39.4159 48.9129 39.2343C48.7371 39.0526 48.4986 38.9505 48.25 38.9505H45.125C44.8764 38.9505 44.6379 39.0526 44.4621 39.2343C44.2863 39.4159 44.1875 39.6623 44.1875 39.9193Z" fill="white"/>
</svg>
