<svg width="16" height="16" viewBox="0 0 16 16" fill="none" xmlns="http://www.w3.org/2000/svg">
<path d="M14.6654 12.4025C14.6654 12.5351 14.6127 12.6623 14.5189 12.756C14.4252 12.8498 14.298 12.9025 14.1654 12.9025H10.7654C10.654 13.3177 10.4088 13.6846 10.0676 13.9463C9.72654 14.208 9.30862 14.3498 8.8787 14.3498C8.44877 14.3498 8.03086 14.208 7.68975 13.9463C7.34864 13.6846 7.10339 13.3177 6.99203 12.9025H1.83203C1.69942 12.9025 1.57225 12.8498 1.47848 12.756C1.38471 12.6623 1.33203 12.5351 1.33203 12.4025C1.33203 12.2699 1.38471 12.1427 1.47848 12.0489C1.57225 11.9552 1.69942 11.9025 1.83203 11.9025H6.99203C7.10339 11.4872 7.34864 11.1203 7.68975 10.8586C8.03086 10.5969 8.44877 10.4551 8.8787 10.4551C9.30862 10.4551 9.72654 10.5969 10.0676 10.8586C10.4088 11.1203 10.654 11.4872 10.7654 11.9025H14.1654C14.298 11.9025 14.4252 11.9552 14.5189 12.0489C14.6127 12.1427 14.6654 12.2699 14.6654 12.4025ZM14.6654 3.59581C14.6654 3.72841 14.6127 3.85559 14.5189 3.94936C14.4252 4.04313 14.298 4.09581 14.1654 4.09581H12.532C12.4207 4.51106 12.1754 4.87797 11.8343 5.13965C11.4932 5.40134 11.0753 5.54318 10.6454 5.54318C10.2154 5.54318 9.79753 5.40134 9.45642 5.13965C9.11531 4.87797 8.87006 4.51106 8.7587 4.09581H1.83203C1.76637 4.09581 1.70135 4.08287 1.64069 4.05775C1.58003 4.03262 1.52491 3.99579 1.47848 3.94936C1.43205 3.90293 1.39522 3.84781 1.37009 3.78715C1.34496 3.72649 1.33203 3.66147 1.33203 3.59581C1.33203 3.53015 1.34496 3.46513 1.37009 3.40446C1.39522 3.3438 1.43205 3.28868 1.47848 3.24225C1.52491 3.19582 1.58003 3.15899 1.64069 3.13387C1.70135 3.10874 1.76637 3.09581 1.83203 3.09581H8.7587C8.87006 2.68056 9.11531 2.31364 9.45642 2.05196C9.79753 1.79028 10.2154 1.64844 10.6454 1.64844C11.0753 1.64844 11.4932 1.79028 11.8343 2.05196C12.1754 2.31364 12.4207 2.68056 12.532 3.09581H14.1654C14.2313 3.09491 14.2967 3.10723 14.3578 3.13204C14.4188 3.15685 14.4743 3.19365 14.5209 3.24025C14.5675 3.28686 14.6043 3.34234 14.6291 3.40341C14.6539 3.46448 14.6663 3.5299 14.6654 3.59581ZM14.6654 7.99581C14.6663 8.06172 14.6539 8.12714 14.6291 8.1882C14.6043 8.24927 14.5675 8.30475 14.5209 8.35136C14.4743 8.39797 14.4188 8.43476 14.3578 8.45957C14.2967 8.48438 14.2313 8.4967 14.1654 8.49581H6.36537C6.254 8.91106 6.00876 9.27797 5.66765 9.53965C5.32654 9.80134 4.90862 9.94318 4.4787 9.94318C4.04877 9.94318 3.63086 9.80134 3.28975 9.53965C2.94864 9.27797 2.70339 8.91106 2.59203 8.49581H1.83203C1.69942 8.49581 1.57225 8.44313 1.47848 8.34936C1.38471 8.25559 1.33203 8.12841 1.33203 7.99581C1.33203 7.8632 1.38471 7.73602 1.47848 7.64225C1.57225 7.54849 1.69942 7.49581 1.83203 7.49581H2.59203C2.70339 7.08056 2.94864 6.71364 3.28975 6.45196C3.63086 6.19028 4.04877 6.04844 4.4787 6.04844C4.90862 6.04844 5.32654 6.19028 5.66765 6.45196C6.00876 6.71364 6.254 7.08056 6.36537 7.49581H14.1654C14.298 7.49581 14.4252 7.54849 14.5189 7.64225C14.6127 7.73602 14.6654 7.8632 14.6654 7.99581Z" fill="#475467"/>
</svg>
