<svg width="16" height="13" viewBox="0 0 16 13" fill="none" xmlns="http://www.w3.org/2000/svg">
<path fill-rule="evenodd" clip-rule="evenodd" d="M15.0177 2.64124C14.4812 2.64124 14.0467 3.11799 14.0467 3.70699C14.0467 3.86399 14.0792 4.01299 14.135 4.14699C12.6325 5.01049 11.2362 6.34399 11.2362 6.34399C9.96649 7.80974 8.93824 5.42049 8.37749 3.58899C9.06049 3.39624 9.56674 2.71699 9.56674 1.90649C9.56674 0.945742 8.85774 0.166992 7.98224 0.166992C7.10699 0.166992 6.39774 0.945742 6.39774 1.90649C6.39774 2.72974 6.91899 3.41649 7.61924 3.59849C7.05724 5.43024 6.03074 7.80924 4.76424 6.34524C4.76424 6.34524 3.36799 5.01174 1.86399 4.14824C1.92243 4.0089 1.9526 3.85934 1.95274 3.70824C1.95274 3.11924 1.51774 2.64249 0.981742 2.64249C0.445492 2.64249 0.0107422 3.11924 0.0107422 3.70824C0.0107422 4.29724 0.445742 4.77449 0.981742 4.77449C1.16174 4.77449 1.32749 4.71724 1.47249 4.62349C2.03349 5.79324 2.82549 7.89599 2.41199 9.82449C2.41199 9.82449 3.02074 12.2632 7.99974 12.181C12.9785 12.2632 13.5865 9.82449 13.5865 9.82449C13.1735 7.89674 13.9652 5.79449 14.5267 4.62349C14.6717 4.71724 14.8375 4.77449 15.0175 4.77449C15.5537 4.77449 15.9887 4.29724 15.9887 3.70824C15.9887 3.11924 15.554 2.64224 15.0177 2.64224" fill="#F79420"/>
<path fill-rule="evenodd" clip-rule="evenodd" d="M7.775 12.1531C8.4895 8.56181 8.7775 4.89556 7.70725 1.32806C7.58525 0.922063 7.55325 0.543563 7.5885 0.195312C6.9035 0.387562 6.39725 1.06681 6.39725 1.87881C6.39725 2.70206 6.9185 3.39131 7.61875 3.57031C7.05675 5.40256 6.03025 7.78206 4.76375 6.31756C4.76375 6.31756 3.3675 4.98406 1.8635 4.12031C1.92199 3.9809 1.95216 3.83125 1.95225 3.68006C1.95225 3.09206 1.51725 2.61481 0.981254 2.61481C0.445004 2.61481 0.0102539 3.09206 0.0102539 3.68006C0.0102539 4.26956 0.445254 4.74681 0.981254 4.74681C1.16125 4.74681 1.327 4.68906 1.472 4.59581C2.033 5.76481 2.825 7.86831 2.4115 9.79606C2.4115 9.79606 3.00525 12.1578 7.775 12.1538" fill="#F19D43"/>
</svg>
