<svg width="413" height="235" viewBox="0 0 413 235" fill="none" xmlns="http://www.w3.org/2000/svg">
<rect width="413" height="235" rx="20" fill="#FFEDD5"/>
<mask id="mask0_3637_30232" style="mask-type:alpha" maskUnits="userSpaceOnUse" x="0" y="0" width="413" height="235">
<rect width="413" height="235" rx="20" fill="#FFEDD5"/>
</mask>
<g mask="url(#mask0_3637_30232)">
<path d="M471.009 182.5C471.009 218.675 440.345 248 402.518 248C364.692 248 334.027 218.675 334.027 182.5C334.027 146.325 364.692 117 402.518 117C440.345 117 471.009 146.325 471.009 182.5ZM345.345 182.5C345.345 212.697 370.942 237.176 402.518 237.176C434.094 237.176 459.692 212.697 459.692 182.5C459.692 152.303 434.094 127.824 402.518 127.824C370.942 127.824 345.345 152.303 345.345 182.5Z" fill="#DC8513" fill-opacity="0.08"/>
<path d="M99.0486 -18C99.0486 12.3757 73.1017 37 41.0946 37C9.0875 37 -16.8594 12.3757 -16.8594 -18C-16.8594 -48.3757 9.0875 -73 41.0946 -73C73.1017 -73 99.0486 -48.3757 99.0486 -18ZM-7.28277 -18C-7.28277 7.35623 14.3765 27.9115 41.0946 27.9115C67.8127 27.9115 89.4719 7.35623 89.4719 -18C89.4719 -43.3562 67.8127 -63.9115 41.0946 -63.9115C14.3765 -63.9115 -7.28277 -43.3562 -7.28277 -18Z" fill="#DC8513" fill-opacity="0.08"/>
<path d="M388.818 245.5C388.818 281.675 358.154 311 320.327 311C282.5 311 251.836 281.675 251.836 245.5C251.836 209.325 282.5 180 320.327 180C358.154 180 388.818 209.325 388.818 245.5ZM263.154 245.5C263.154 275.697 288.751 300.176 320.327 300.176C351.903 300.176 377.5 275.697 377.5 245.5C377.5 215.303 351.903 190.824 320.327 190.824C288.751 190.824 263.154 215.303 263.154 245.5Z" fill="#DC8513" fill-opacity="0.08"/>
<path d="M30.5564 35C30.5564 65.3757 4.60949 90 -27.3976 90C-59.4047 90 -85.3516 65.3757 -85.3516 35C-85.3516 4.62434 -59.4047 -20 -27.3976 -20C4.60949 -20 30.5564 4.62434 30.5564 35ZM-75.775 35C-75.775 60.3562 -54.1157 80.9115 -27.3976 80.9115C-0.67952 80.9115 20.9798 60.3562 20.9798 35C20.9798 9.64377 -0.67952 -10.9115 -27.3976 -10.9115C-54.1157 -10.9115 -75.775 9.64377 -75.775 35Z" fill="#DC8513" fill-opacity="0.08"/>
</g>
</svg>
